<?xml version="1.0" standalone="no"?>
<!DOCTYPE svg PUBLIC "-//W3C//DTD SVG 20010904//EN"
 "http://www.w3.org/TR/2001/REC-SVG-20010904/DTD/svg10.dtd">
<svg version="1.0" xmlns="http://www.w3.org/2000/svg"
 width="700.000000pt" height="700.000000pt" viewBox="0 0 700.000000 700.000000"
 preserveAspectRatio="xMidYMid meet">
<metadata>
Created by potrace 1.14, written by Peter Selinger 2001-2017
</metadata>
<g transform="translate(0.000000,700.000000) scale(0.100000,-0.100000)"
fill="#000000" stroke="none">
<path d="M2046 6166 c-9 -14 -16 -28 -16 -31 0 -3 -11 -22 -23 -43 -13 -20
-39 -64 -57 -97 -44 -81 -57 -104 -207 -370 -71 -126 -141 -250 -155 -275 -14
-25 -48 -87 -77 -138 -47 -82 -111 -235 -113 -269 -1 -7 -5 -13 -10 -13 -5 0
-7 -4 -3 -9 3 -5 1 -12 -5 -16 -30 -19 11 -51 164 -130 21 -11 40 -25 43 -31
2 -7 -20 -54 -49 -105 -29 -52 -60 -107 -68 -124 -8 -16 -15 -31 -16 -33 -1
-2 -54 26 -118 63 -114 65 -116 65 -135 46 -11 -11 -17 -22 -14 -25 3 -3 -2
-8 -11 -12 -9 -3 -16 -11 -16 -18 0 -6 -8 -19 -17 -27 -28 -26 -87 -103 -109
-144 -11 -21 -138 -246 -407 -725 -88 -157 -164 -291 -170 -297 -14 -19 14
-16 68 7 26 11 55 20 66 20 10 0 19 5 19 10 0 6 8 10 18 10 10 0 22 3 26 8 4
4 11 7 14 8 4 0 21 7 37 14 17 7 36 14 44 16 8 1 17 8 21 14 4 7 10 11 14 10
9 -2 100 43 107 53 3 5 8 8 10 7 8 -4 59 24 59 32 0 4 3 7 8 6 12 -3 62 24 62
34 0 4 6 8 13 8 8 0 22 9 32 20 10 11 21 17 25 15 5 -3 10 -2 12 3 1 4 26 23
53 42 28 19 53 39 57 45 14 19 16 -1 8 -75 -8 -80 -5 -432 4 -490 3 -19 8 -48
10 -65 64 -441 236 -836 514 -1180 89 -111 274 -295 367 -365 33 -25 62 -48
65 -51 19 -25 250 -162 370 -221 202 -98 223 -109 241 -130 9 -10 18 -15 21
-13 3 3 13 -4 23 -15 10 -11 24 -20 32 -20 7 0 16 -7 19 -15 4 -8 11 -15 18
-15 6 0 27 -11 46 -24 19 -12 69 -40 110 -61 41 -22 78 -44 82 -49 4 -6 8 -8
8 -3 0 4 22 -4 50 -18 27 -14 52 -25 55 -26 2 0 22 -7 42 -16 40 -17 59 -23
81 -25 6 -1 12 -5 12 -10 0 -5 4 -7 9 -3 5 3 12 1 16 -5 4 -6 10 -8 15 -5 5 3
11 1 15 -5 3 -5 16 -10 29 -10 12 0 26 -3 30 -7 4 -5 11 -8 14 -8 15 -1 100
-21 105 -25 5 -4 86 -22 112 -24 35 -4 65 -17 60 -27 -4 -5 -1 -9 4 -9 6 0 10
-3 9 -8 -5 -26 103 -172 128 -172 4 0 14 -8 23 -18 16 -19 76 -47 85 -41 3 2
12 -5 20 -16 9 -11 15 -15 16 -7 0 10 6 10 28 -1 30 -15 165 -23 184 -11 6 4
23 8 37 10 14 1 37 6 51 12 14 5 29 10 34 10 5 0 12 4 15 9 3 4 25 21 48 36
61 42 106 95 139 165 23 49 35 63 57 68 15 4 30 11 33 15 3 5 9 7 14 4 5 -3
28 0 52 6 24 6 50 12 58 13 8 2 26 8 40 13 14 6 31 12 38 14 8 3 28 31 46 64
119 218 200 355 210 356 6 1 189 2 406 3 l395 1 1 310 c1 336 -4 385 -52 460
-53 82 -139 139 -227 151 -26 4 -46 10 -45 13 6 13 82 147 95 169 8 12 18 20
22 18 9 -6 85 45 111 73 51 56 85 131 94 205 6 53 10 60 121 256 99 173 120
211 153 270 14 25 64 115 112 200 48 85 99 177 113 203 15 26 34 58 42 70 19
30 24 67 13 97 -6 14 -12 35 -14 47 -2 12 -9 35 -16 50 -6 16 -10 34 -9 41 1
6 -3 12 -9 12 -6 0 -9 4 -6 8 3 5 -1 20 -9 35 -11 22 -11 28 3 41 16 14 49 75
70 126 5 14 14 37 20 51 6 16 6 31 0 42 -5 10 -5 17 0 17 12 0 12 82 0 97 -5
7 -5 13 0 17 13 8 -45 166 -61 166 -4 0 -6 4 -3 9 6 8 -67 88 -111 121 -33 26
-83 51 -83 43 0 -4 -4 -3 -8 4 -13 21 -125 41 -206 37 -45 -2 -76 1 -76 6 0 6
-7 10 -16 10 -8 0 -13 4 -10 8 2 4 -27 39 -65 76 -38 38 -69 73 -69 79 0 6 -3
7 -7 4 -3 -4 -24 11 -45 33 -22 22 -42 40 -45 40 -4 0 -13 7 -22 15 -39 38
-87 75 -103 81 -10 3 -18 8 -18 12 0 4 -18 18 -40 32 -22 14 -40 28 -40 33 0
4 -5 5 -10 2 -6 -3 -13 1 -16 10 -4 9 -13 14 -20 11 -8 -3 -14 -2 -14 3 0 5
-17 17 -37 26 -21 10 -40 21 -43 25 -3 4 -34 22 -70 40 -36 18 -67 35 -70 39
-3 3 -12 7 -20 9 -8 2 -33 11 -55 21 -22 10 -58 26 -80 36 -22 10 -74 42 -115
71 -124 86 -278 173 -390 219 -36 14 -80 33 -97 41 -82 37 -344 112 -448 128
-63 9 -121 18 -135 21 -112 21 -455 21 -590 0 -14 -2 -45 -7 -70 -10 -137 -19
-485 -115 -556 -153 -10 -6 -71 -35 -134 -66 -103 -50 -174 -87 -204 -109 -6
-4 -42 -28 -81 -54 -38 -25 -86 -59 -105 -74 -24 -20 -36 -25 -41 -17 -4 7 -5
16 -3 20 3 5 7 57 9 117 2 59 5 112 6 117 1 5 1 11 0 14 -1 3 -4 48 -6 100 -5
110 -12 177 -20 190 -3 6 -1 10 5 10 6 0 8 5 3 13 -4 6 -8 17 -9 22 -1 6 -5
27 -8 48 -9 55 -37 191 -41 195 -1 1 -10 -9 -19 -22z m3957 -3068 c-2 -89 -10
-223 -14 -223 -1 0 -2 -13 -3 -30 -1 -26 -6 -30 -33 -33 l-31 -3 13 45 c7 24
16 57 19 73 14 79 35 207 34 212 -2 21 3 51 10 51 4 0 6 -42 5 -92z"/>
</g>
</svg>
