<?xml version='1.0' encoding='iso-8859-1'?>
<!DOCTYPE svg PUBLIC '-//W3C//DTD SVG 1.1//EN' 'http://www.w3.org/Graphics/SVG/1.1/DTD/svg11.dtd'>
<svg version="1.1" xmlns="http://www.w3.org/2000/svg" viewBox="0 0 286.199 286.199" xmlns:xlink="http://www.w3.org/1999/xlink" enable-background="new 0 0 286.199 286.199">
  <g>
    <path d="m172.697,89.747c12.646,0 22.935-10.289 22.935-22.935s-10.289-22.935-22.935-22.935-22.935,10.289-22.935,22.935 10.289,22.935 22.935,22.935zm0-33.869c6.029,0 10.935,4.905 10.935,10.935s-4.905,10.935-10.935,10.935-10.935-4.905-10.935-10.935 4.906-10.935 10.935-10.935z"/>
    <path d="m242.896,72.997c2.233-3.49 2.946-7.635 2.006-11.67-0.939-4.035-3.409-7.439-6.954-9.583-7.035-4.256-16.088-2.212-20.613,4.652l-26.271,39.861h-36.732l-31.163-47.284c-0.34-0.516-0.746-0.961-1.199-1.334l30.991-35.266c2.188-2.489 1.943-6.28-0.546-8.467-2.489-2.188-6.281-1.942-8.467,0.546l-1.948,2.214-5.786-5.149c-2.476-2.202-6.268-1.982-8.471,0.494-2.203,2.476-1.981,6.268 0.494,8.471l5.842,5.198-2.718,3.093-4.352-3.873c-2.475-2.202-6.268-1.982-8.471,0.494-2.203,2.476-1.982,6.268 0.494,8.471l4.408,3.922-36.508,41.544c-5.309-3.246-11.374-4.923-17.546-4.803-8.331,0.176-15.876,3.598-21.249,9.636-5.372,6.037-7.894,13.93-7.102,22.224 0.777,8.127 4.663,15.68 10.942,21.268 6.302,5.607 14.105,8.387 21.729,8.387 8.216,0 16.223-3.229 21.915-9.625 9.691-10.892 9.473-27.379 0.273-39.108l5.418-6.165 43.786,68.428v32.462l-20.331,104.717c-0.319,1.644 0.063,3.347 1.055,4.696 0.992,1.35 2.502,2.224 4.166,2.41l20.523,2.303c2.967,0.339 5.735-1.571 6.48-4.468l15.305-59.497 13.304,59.315c0.62,2.765 3.075,4.688 5.849,4.688 0.223,0 0.448-0.013 0.674-0.038l20.523-2.303c1.637-0.184 3.127-1.033 4.12-2.348 0.992-1.315 1.4-2.981 1.128-4.606l-17.601-104.978v-32.353l42.603-66.576zm-156.238,35.443c-6.575,7.39-18.554,7.501-26.702,0.25-4.01-3.568-6.487-8.343-6.974-13.445-0.472-4.935 0.992-9.589 4.121-13.105 3.128-3.516 7.581-5.51 12.538-5.615 0.139-0.003 0.276-0.004 0.415-0.004 4.98,0 9.849,1.897 13.75,5.369 8.147,7.251 9.427,19.161 2.852,26.55zm118.355,164.199l-8.88,.997-17.582-78.388c-0.607-2.706-2.989-4.643-5.761-4.687-0.031,0-0.063,0-0.094,0-2.733,0-5.127,1.851-5.81,4.505l-20.216,78.588-8.882-.997 17.713-91.233h34.131c0.03,0 0.058-0.004 0.088-0.004l15.293,91.219zm-15.772-138.056c-0.618,0.965-0.946,2.088-0.946,3.234v31.607h-31.195v-31.689c0-0.003 0-0.006 0-0.01-0.002-1.448-0.518-2.776-1.375-3.812l-46.168-72.15 4.382-4.987 32.151,48.782c1.11,1.685 2.992,2.698 5.01,2.698h15.598v42.985c0,3.313 2.687,6 6,6s6-2.687 6-6v-42.985h15.598c2.018,0 3.899-1.014 5.01-2.698l28.05-42.56c0.961-1.46 2.884-1.895 4.382-0.989 1.017,0.615 1.363,1.541 1.479,2.037 0.115,0.497 0.214,1.479-0.427,2.481l-43.549,68.056z"/>
  </g>
</svg>
